<svg xmlns="http://www.w3.org/2000/svg" id="graphic" width="647" height="446.88"><g id="facets"><g class="facet" transform="translate(69, 10)" opacity="1"><rect class="facet-title-bg" height="0" fill="#eeeeee" x="0" y="0" clip-path="url(#facet-clip-0)"/><text class="facet-title" y="0" font-size="17.5px" font-weight="bold" dx="0" x="0" fill="#333333" clip-path="url(#facet-clip-0)" opacity="0"/><g class="plot"><clipPath class="facet-clip" id="facet-clip-0"><rect width="582" height="416.88" transform="translate(-7, -21)"/></clipPath><g class="bg"><rect fill="none" width="568" height="374.88" style="fill: none;"/></g><g class="interaction"><g class="series"><path data-target="point-0-0" d="M188.98879399999996,374.88L15.794234000000014,0L0,0L0,374.88Z" style="opacity: 0;"/><path data-target="point-0-1" d="M15.794234000000014,0L188.98879399999996,374.88L270.76038575999996,374.88L199.00835376,0Z" style="opacity: 0;"/><path data-target="point-0-2" d="M199.00835376,0L270.76038575999996,374.88L394.56490549,374.88L348.79205749,0Z" style="opacity: 0;"/><path data-target="point-0-3" d="M348.79205749,0L394.56490549,374.88L532.3519864775,374.8799999999999L493.3832104775,0Z" style="opacity: 0;"/><path data-target="point-0-4" d="M493.3832104775,0L532.3519864775,374.8799999999999L568,374.88L568,0Z" style="opacity: 0;"/></g></g><g class="axes"><g class="y axis" fill="none" font-size="10" font-family="sans-serif" text-anchor="end" style="font-family: &quot;Roboto Condensed&quot;;"><path class="domain" stroke="#eeeeee" d="M0.5,375.38V0.5" stroke-dasharray="0" style="visibility: hidden;"/><g class="tick" opacity="1" transform="translate(0, 375.3800048828125)" style="visibility: visible;"><line stroke="#eeeeee" x2="568" stroke-dasharray="0"/><text fill="rgb(153, 153, 153)" x="-3" dy="0.33em" opacity="1" text-anchor="end" font-size="12">0</text></g><g class="tick" opacity="1" transform="translate(0, 328.5199890136719)" style="visibility: visible;"><line stroke="#eeeeee" x2="568" stroke-dasharray="0"/><text fill="rgb(153, 153, 153)" x="-3" dy="0.33em" opacity="1" text-anchor="end" font-size="12">2</text></g><g class="tick" opacity="1" transform="translate(0, 281.6600036621094)" style="visibility: visible;"><line stroke="#eeeeee" x2="568" stroke-dasharray="0"/><text fill="rgb(153, 153, 153)" x="-3" dy="0.33em" opacity="1" text-anchor="end" font-size="12">4</text></g><g class="tick" opacity="1" transform="translate(0, 234.8000030517578)" style="visibility: visible;"><line stroke="#eeeeee" x2="568" stroke-dasharray="0"/><text fill="rgb(153, 153, 153)" x="-3" dy="0.33em" opacity="1" text-anchor="end" font-size="12">6</text></g><g class="tick" opacity="1" transform="translate(0, 187.94000244140625)" style="visibility: visible;"><line stroke="#eeeeee" x2="568" stroke-dasharray="0"/><text fill="rgb(153, 153, 153)" x="-3" dy="0.33em" opacity="1" text-anchor="end" font-size="12">8</text></g><g class="tick" opacity="1" transform="translate(0, 141.0800018310547)" style="visibility: visible;"><line stroke="#eeeeee" x2="568" stroke-dasharray="0"/><text fill="rgb(153, 153, 153)" x="-3" dy="0.33em" opacity="1" text-anchor="end" font-size="12">10</text></g><g class="tick" opacity="1" transform="translate(0, 94.22000122070312)" style="visibility: visible;"><line stroke="#eeeeee" x2="568" stroke-dasharray="0"/><text fill="rgb(153, 153, 153)" x="-3" dy="0.33em" opacity="1" text-anchor="end" font-size="12">12</text></g><g class="tick" opacity="1" transform="translate(0, 47.36000061035156)" style="visibility: visible;"><line stroke="#eeeeee" x2="568" stroke-dasharray="0"/><text fill="rgb(153, 153, 153)" x="-3" dy="0.33em" opacity="1" text-anchor="end" font-size="12">14</text></g><g class="tick" opacity="1" transform="translate(0,0.5)" style="visibility: visible;"><line stroke="#eeeeee" x2="568" stroke-dasharray="0"/><text fill="rgb(153, 153, 153)" x="-3" dy="0.33em" opacity="1" text-anchor="end" font-size="12">16</text></g></g><text class="y axis-label" transform="translate(-47.000000000000014, 187.44000244140625) rotate(-90)" fill="#999999" text-anchor="middle" dominant-baseline="middle" font-size="12">Average video length</text><g class="x axis" transform="translate(0, 374.8800048828125)" fill="none" font-size="10" font-family="sans-serif" text-anchor="middle" style="font-family: &quot;Roboto Condensed&quot;;"><path class="domain" stroke="#eeeeee" d="M0.5,0.5H568.5" stroke-dasharray="0" style="visibility: hidden;"/><g class="tick" opacity="1" transform="translate(0.5,0)"><line stroke="#eeeeee" y2="-374.88" stroke-dasharray="0"/><text fill="rgb(153, 153, 153)" y="3" dy="-9" opacity="1" dominant-baseline="central" font-size="11" transform="translate(0, 15)" dx="0" style="visibility: visible;">Starting video</text></g><g class="tick" opacity="1" transform="translate(142.5,0)"><line stroke="#eeeeee" y2="-374.88" stroke-dasharray="0"/><text fill="rgb(153, 153, 153)" y="3" dy="-9" opacity="1" dominant-baseline="central" font-size="11" transform="translate(0, 15)" dx="0" style="visibility: visible;">First recommended video</text></g><g class="tick" opacity="1" transform="translate(284.5, 0)"><line stroke="#eeeeee" y2="-374.88" stroke-dasharray="0"/><text fill="rgb(153, 153, 153)" y="3" dy="-9" opacity="1" dominant-baseline="central" font-size="11" transform="translate(0, 15)" dx="0" style="visibility: visible;">Second</text></g><g class="tick" opacity="1" transform="translate(426.5, 0)"><line stroke="#eeeeee" y2="-374.88" stroke-dasharray="0"/><text fill="rgb(153, 153, 153)" y="3" dy="-9" opacity="1" dominant-baseline="central" font-size="11" transform="translate(0, 15)" dx="0" style="visibility: visible;">Third</text></g><g class="tick" opacity="1" transform="translate(568.5, 0)"><line stroke="#eeeeee" y2="-374.88" stroke-dasharray="0"/><text fill="rgb(153, 153, 153)" y="3" dy="-9" opacity="1" dominant-baseline="central" font-size="11" transform="translate(0, 15)" dx="0" style="visibility: visible;">Fourth</text></g></g></g></g></g></g><g class="annotations below"><g class="axis-highlights" transform="translate(69, 10)" style="opacity: 1;"/></g><g id="areas"><g class="series" pointer-events="none"><path class="area" transform="translate(69, 10)" fill-opacity="0" fill="#cc503e" clip-path="url(#clip-0-0)" d="M0,152.295C47.333333333333336,127.22489999999998,94.66666666666666,102.15479999999997,142,86.69099999999997C189.33333333333334,71.22719999999998,236.66666666666666,66.93169999999999,284,59.51220000000001C331.3333333333333,52.092700000000015,378.6666666666667,47.52385000000004,426,42.174000000000035C473.3333333333333,36.82415000000003,520.6666666666666,32.11862500000001,568,27.413099999999986L568,27.413099999999986C520.6666666666666,32.11862500000001,473.3333333333333,36.82415000000003,426,42.174000000000035C378.6666666666667,47.52385000000004,331.3333333333333,52.092700000000015,284,59.51220000000001C236.66666666666666,66.93169999999999,189.33333333333334,71.22719999999998,142,86.69099999999997C94.66666666666666,102.15479999999997,47.333333333333336,127.22489999999998,0,152.295Z"/></g></g><g id="lines"><g class="series"><clipPath id="clip-0-0"><rect width="568" y="-10" height="394.88"/></clipPath><path class="line" opacity="1" fill="none" stroke="#cc503e" stroke-width="2" transform="translate(69, 10)" clip-path="url(#clip-0-0)" d="M0,152.295C47.333333333333336,127.22489999999998,94.66666666666666,102.15479999999997,142,86.69099999999997C189.33333333333334,71.22719999999998,236.66666666666666,66.93169999999999,284,59.51220000000001C331.3333333333333,52.092700000000015,378.6666666666667,47.52385000000004,426,42.174000000000035C473.3333333333333,36.82415000000003,520.6666666666666,32.11862500000001,568,27.413099999999986"/><text class="label" font-size="11" alignment-baseline="middle" opacity="1" x="5" fill="#cc503e" transform="translate(637, 37.41310119628906)"/></g></g><g id="data-points"><g class="series" transform="translate(69, 10)"><path class="data-point" fill="#cc503e" data-type="point" transform="translate(0, 0)" d="M-3,152.295A3,3,0,1,1,3,152.295A3,3,0,1,1,-3,152.295Z" id="point-0-0" opacity="1"/><path class="data-point" fill="#cc503e" data-type="point" transform="translate(0, 0)" d="M139,86.69099999999997A3,3,0,1,1,145,86.69099999999997A3,3,0,1,1,139,86.69099999999997Z" id="point-0-1" opacity="1"/><path class="data-point" fill="#cc503e" data-type="point" transform="translate(0, 0)" d="M281,59.51220000000001A3,3,0,1,1,287,59.51220000000001A3,3,0,1,1,281,59.51220000000001Z" id="point-0-2" opacity="1"/><g class="data-label" text-anchor="middle" font-size="12.622222222222222px" pointer-events="none" opacity="1" transform="translate(7.890625, 167.91722106933594)"><text class="back" stroke-width="1.893333333333333" stroke="#f7f7f7"><tspan class="label"/><tspan class="value" x="0" dy="0">9.5</tspan></text><text class="front" fill="#cc503e"><tspan class="label"/><tspan class="value" x="0" dy="0">9.5</tspan></text></g><g class="data-label" text-anchor="middle" font-size="12.622222222222222px" pointer-events="none" opacity="1" transform="translate(142, 102.31322479248047)"><text class="back" stroke-width="1.893333333333333" stroke="#f7f7f7"><tspan class="label"/><tspan class="value" x="0" dy="0">12.3</tspan></text><text class="front" fill="#cc503e"><tspan class="label"/><tspan class="value" x="0" dy="0">12.3</tspan></text></g><g class="data-label" text-anchor="middle" font-size="12.622222222222222px" pointer-events="none" opacity="1" transform="translate(284, 75.1344223022461)"><text class="back" stroke-width="1.893333333333333" stroke="#f7f7f7"><tspan class="label"/><tspan class="value" x="0" dy="0">13.5</tspan></text><text class="front" fill="#cc503e"><tspan class="label"/><tspan class="value" x="0" dy="0">13.5</tspan></text></g><path class="data-point" fill="#cc503e" data-type="point" transform="translate(0, 0)" d="M423,42.174000000000035A3,3,0,1,1,429,42.174000000000035A3,3,0,1,1,423,42.174000000000035Z" id="point-0-3" opacity="1"/><path class="data-point" fill="#cc503e" data-type="point" transform="translate(0, 0)" d="M565,27.413099999999986A3,3,0,1,1,571,27.413099999999986A3,3,0,1,1,565,27.413099999999986Z" id="point-0-4" opacity="1"/><g class="data-label" text-anchor="middle" font-size="12.622222222222222px" pointer-events="none" opacity="1" transform="translate(426, 57.79622268676758)"><text class="back" stroke-width="1.893333333333333" stroke="#f7f7f7"><tspan class="label"/><tspan class="value" x="0" dy="0">14.2</tspan></text><text class="front" fill="#cc503e"><tspan class="label"/><tspan class="value" x="0" dy="0">14.2</tspan></text></g><g class="data-label" text-anchor="middle" font-size="12.622222222222222px" pointer-events="none" opacity="1" transform="translate(556.984375, 43.03532409667969)"><text class="back" stroke-width="1.893333333333333" stroke="#f7f7f7"><tspan class="label"/><tspan class="value" x="0" dy="0">14.8</tspan></text><text class="front" fill="#cc503e"><tspan class="label"/><tspan class="value" x="0" dy="0">14.8</tspan></text></g></g></g><g id="data-labels"/><g class="annotations above"><g class="axis-highlights" transform="translate(69, 10)" style="opacity: 1;"/></g></svg>